<svg width="326" height="326" viewBox="0 0 326 326" fill="none" xmlns="http://www.w3.org/2000/svg">
<path fill-rule="evenodd" clip-rule="evenodd" d="M6.42 1.9732C2.939 4.0962 -0.00299948 9.4912 0.00600052 13.7382C0.0230005 22.4852 -0.257999 22.1522 47.834 70.4062C72.95 95.6072 94.69 116.856 96.145 117.628C106.842 123.299 118.724 118.012 119.771 107.116C120.781 96.6062 120.96 96.8302 73.619 49.2532C45.82 21.3152 28.724 4.8862 25.5 3.0122C19.354 -0.560798 11.294 -0.999798 6.42 1.9732ZM67.551 2.0442C63.979 4.3982 61.097 9.5152 61.047 13.5872C60.945 22.0722 61.844 23.2442 90.84 52.4032C107.188 68.8442 119.879 80.8062 121.872 81.6532C126.827 83.7602 134.618 83.4862 138.531 81.0682C141.717 79.0992 145 73.1002 145 69.2482C145 68.2592 144.279 65.0062 143.398 62.0192C141.902 56.9462 140.133 54.9112 116.648 31.2462C101.315 15.7952 89.549 4.7732 86.5 3.0052C80.281 -0.600798 72.187 -1.0118 67.551 2.0442ZM126.549 3.1782C121.894 7.2662 120.439 12.5392 122.06 19.4572C123.204 24.3412 124.562 25.8972 150.381 51.9192C165.296 66.9512 179.17 80.1142 181.21 81.1692C186.24 83.7692 194.451 83.7192 198.81 81.0612C205.129 77.2092 206.714 68.2302 202.601 59.5872C199.455 52.9772 150.524 4.0992 144.628 1.6782C142.498 0.803202 138.351 0.0872025 135.413 0.0872025C130.867 0.0872025 129.544 0.548202 126.549 3.1782ZM190.02 1.8392C182.74 5.4962 180.013 14.3382 183.535 22.8692C185.439 27.4822 296.636 139.25 302.21 142.154C307.232 144.771 315.437 144.727 319.81 142.061C325.921 138.336 327.675 129.406 323.931 121.087C320.898 114.347 212.56 5.8592 205.5 2.4912C199.555 -0.343798 194.766 -0.545797 190.02 1.8392ZM249.299 2.0472C245.359 4.4492 243 8.8032 243 13.6712C243 22.3992 243.821 23.4602 273.379 52.9062C298.271 77.7042 302.013 81.0562 305.964 82.1002C317.724 85.2072 326.723 78.0512 325.645 66.4502C325.383 63.6242 324.405 59.7992 323.473 57.9502C320.957 52.9582 272.36 4.7312 267.29 2.1942C261.787 -0.559797 253.682 -0.625799 249.299 2.0472ZM8.071 61.8392C1.282 65.3012 -1.294 72.2372 1.016 80.8352C2.194 85.2202 5.776 89.0842 47.363 130.829C79.219 162.806 93.686 176.659 96.706 178.079C99.252 179.276 103.056 180.087 106.121 180.087C110.859 180.087 111.606 179.744 115.632 175.719C119.661 171.689 120 170.95 120 166.186C120 163.346 119.309 159.35 118.465 157.305C117.415 154.763 102.949 139.563 72.715 109.235C26.359 62.7342 23.285 60.1182 15 60.0982C13.075 60.0942 9.957 60.8772 8.071 61.8392ZM8.02 121.839C3.257 124.231 -0.00199977 129.378 0.0100002 134.485C0.0320002 143.908 -0.690994 143.113 91.646 235.298C152.593 296.145 179.609 322.469 182.218 323.548C193.408 328.179 205 321.906 205 311.219C205 301.527 208.708 305.633 115.59 212.231C23.853 120.215 23.749 120.119 15 120.098C13.075 120.094 9.934 120.877 8.02 121.839ZM9.643 181.064C4.05 182.84 0 188.664 0 194.929C0 203.503 0.133999 203.655 60.279 263.939C98.925 302.673 118.799 321.9 121.5 323.167C136.981 330.428 150.208 316.364 142.451 300.891C140.274 296.55 30.712 186.674 25.419 183.524C20.818 180.786 13.91 179.709 9.643 181.064ZM250.328 181.97C248.033 183.042 245.341 185.163 244.345 186.684C241.788 190.586 241.977 199.394 244.729 204.587C245.898 206.792 258.661 220.308 273.174 234.708C294.914 256.279 300.325 261.136 304.238 262.589C319.303 268.186 330.576 255.88 323.936 241.087C321.504 235.67 272.702 186.096 266.753 183C261.052 180.032 255.254 179.669 250.328 181.97ZM191.071 183.839C189.185 184.8 186.71 186.859 185.571 188.413C182.744 192.272 182.825 201.073 185.739 206.587C186.99 208.955 210.831 233.488 244.176 266.721C305.047 327.386 303.172 325.805 313.149 324.847C324.174 323.787 329.03 312.971 323.592 301.587C320.213 294.513 212.725 187.167 206 184.15C200.439 181.655 195.553 181.553 191.071 183.839ZM189.207 243.025C181.301 246.714 179.057 256.495 183.951 265.929C184.995 267.941 197.921 281.571 212.675 296.219C241.699 325.034 242.694 325.755 252.149 324.847C262.891 323.814 267.923 313.197 262.936 302.087C260.504 296.67 211.702 247.096 205.753 244C200 241.006 194.259 240.667 189.207 243.025ZM9 242.793C4.199 244.548 -0.00499977 251.092 0.0100002 256.787C0.0310002 264.886 3.367 269.183 30.641 296.241C58.823 324.199 60.672 325.548 69.822 324.829C79.905 324.036 84.988 315.467 81.974 304.341C80.813 300.056 78.063 296.936 54.093 272.721C36.783 255.233 26.104 245.205 23.5 243.993C19.701 242.224 12.244 241.607 9 242.793Z" fill="#FF8B13"/>
</svg>
